<svg width="259" height="33" viewBox="0 0 259 33" fill="none" xmlns="http://www.w3.org/2000/svg">
<path d="M55.8516 5.42725V14.2212C55.8516 15.8169 55.501 17.063 54.7881 17.9448C54.091 18.8066 52.8935 19.3023 51.2217 19.4585L53.8809 23.3755H53.8799C54.0649 23.6447 54.2864 23.8658 54.5439 24.0396C54.8054 24.2152 55.0415 24.2943 55.2539 24.2944H56.8662V28.6108H54.4014C53.7348 28.6108 53.1452 28.5126 52.6357 28.3159L52.4219 28.2261C51.8758 27.9693 51.4102 27.6354 51.0254 27.2222C50.6509 26.8218 50.3149 26.4017 50.0176 25.9644L50.0166 25.9624L45.833 19.5015H39.0908V28.6362H34.3311V5.42725H55.8516ZM39.0654 15.3726H49.7695C50.3071 15.3726 50.6407 15.237 50.8125 14.9976C50.9941 14.7436 51.0918 14.3855 51.0918 13.9146V9.56396H39.0654V15.3726Z" fill="#0031AF" stroke="#0031AF" stroke-width="0.20471"/>
<path d="M77.9365 10.6299V16.5918C77.9365 17.7894 77.5977 18.8112 76.916 19.6504C76.2249 20.4966 75.1428 20.9082 73.6973 20.9082H65.0059V24.6611H72.5029C72.895 24.6611 73.1704 24.5692 73.3477 24.4033C73.5236 24.2387 73.6211 23.9842 73.6211 23.6201V22.7588H78.0479V23.9785C78.0479 25.5962 77.5898 26.7862 76.6523 27.5225C75.7249 28.2508 74.4757 28.6104 72.9209 28.6104H60.792V10.6299H77.9365ZM65.0059 17.4023H72.8447C73.0512 17.4023 73.2238 17.3214 73.3721 17.1484C73.5228 16.9723 73.5947 16.7857 73.5947 16.5918V14.1445H65.0059V17.4023Z" fill="#2CA2FF" stroke="#2CA2FF" stroke-width="0.20471"/>
<path d="M86.5791 19.7488C87.3138 19.7489 87.909 20.3442 87.9092 21.0789V23.2019C87.9091 23.9366 87.3138 24.5318 86.5791 24.532H84.4355C83.7007 24.532 83.1046 23.9367 83.1045 23.2019V21.0789C83.1046 20.3441 83.7008 19.7488 84.4355 19.7488H86.5791ZM86.5791 9.84644C87.3138 9.84659 87.9092 10.4427 87.9092 11.1775V13.321C87.909 14.0557 87.3137 14.651 86.5791 14.6511H84.4355C83.7008 14.6511 83.1047 14.0558 83.1045 13.321V11.1775C83.1045 10.4426 83.7007 9.84644 84.4355 9.84644H86.5791Z" fill="#42CE50" stroke="#42CE50" stroke-width="0.20471"/>
<path d="M114.752 5.427V14.1702C114.752 15.5161 114.559 16.6462 114.173 17.554C113.78 18.4729 113.089 19.1561 112.108 19.6028H112.107C111.127 20.0443 109.751 20.26 107.988 20.26H97.9404V28.636H93.1553V5.427H114.752ZM97.9404 16.0198L108.406 15.9954L108.606 15.9885C109.053 15.9558 109.36 15.8098 109.545 15.5667V15.5657C109.771 15.276 109.891 14.9008 109.891 14.4348V9.59009H97.9404V16.0198Z" fill="#40A800" stroke="#40A800" stroke-width="0.20471"/>
<path d="M123.062 28.508H118.609V10.7324H128.06C130.022 10.7324 131.449 11.1248 132.342 11.9095C133.233 12.69 133.681 14.0056 133.681 15.8587V19.5691H129.519V16.1487C129.519 15.558 129.365 15.1465 129.058 14.9119C128.755 14.6795 128.361 14.5622 127.872 14.5622H123.062V28.508Z" fill="#FFC700"/>
<path d="M123.21 28.5439H118.758V10.7683H128.209C130.17 10.7683 131.597 11.1607 132.49 11.9454C133.382 12.7258 133.83 14.0415 133.83 15.8946V20.0144H129.667V16.1846C129.667 15.5939 129.514 15.1824 129.207 14.9478C128.904 14.7154 128.509 14.5981 128.021 14.5981H123.21V28.5439Z" fill="#F6C000"/>
<path d="M149.179 28.5339H137.57V10.7327H154.305V23.9791C154.305 25.3332 153.887 26.4313 153.051 27.2715C152.22 28.1117 150.93 28.5339 149.179 28.5339ZM149.802 23.4076V14.4857H142.023V24.7894H148.454C148.868 24.7894 149.196 24.6764 149.435 24.4482C149.678 24.2222 149.802 23.8746 149.802 23.4076Z" fill="#D46000"/>
<path fill-rule="evenodd" clip-rule="evenodd" d="M137.363 28.7387V10.5281H154.508V23.9792C154.508 25.3788 154.074 26.5316 153.195 27.4156C152.31 28.3098 150.956 28.7387 149.177 28.7387H137.363ZM149.293 24.2984C149.48 24.1244 149.595 23.8408 149.595 23.4077V14.6905H142.225V24.5848H148.452C148.827 24.5848 149.1 24.483 149.291 24.3003L149.293 24.2984Z" fill="#D46000"/>
<path d="M173.732 28.5082H159.078V22.819H163.633V24.6017H173.442C174.118 24.6017 174.581 24.4439 174.832 24.124C175.088 23.8063 175.216 23.3606 175.216 22.7849V18.4604H159.206V5.52954L179.251 5.55513V11.7305H174.645V9.46167H163.786V14.5879H179.796V22.9128C179.796 24.8064 179.338 26.2116 178.423 27.1264C177.513 28.0476 175.95 28.5082 173.732 28.5082Z" fill="#E90F0F"/>
<path fill-rule="evenodd" clip-rule="evenodd" d="M158.871 28.713V22.6144H163.835V24.3971H173.44C174.094 24.3971 174.476 24.2428 174.669 23.9976L174.67 23.9957C174.887 23.7267 175.009 23.3328 175.009 22.785V18.6652H158.999V5.32471L179.453 5.35082V11.9354H174.438V9.66652H163.989V14.3834H179.999V22.9129C179.999 24.8355 179.534 26.303 178.566 27.2709C177.597 28.2506 175.965 28.713 173.73 28.713H158.871Z" fill="#E90F0F"/>
<g opacity="0.9">
<path d="M13.9355 8.4939C18.2012 8.49392 21.7363 12.0351 21.7363 16.4998C21.7363 20.9645 18.2012 24.5056 13.9355 24.5056C9.66991 24.5056 6.13477 20.9645 6.13477 16.4998C6.13478 12.0351 9.66992 8.4939 13.9355 8.4939Z" stroke="#8B1C9E" stroke-width="4.50361"/>
<path d="M11.2663 2.96045H16.6003L18.2416 10.4282H9.625L11.2663 2.96045Z" fill="#8B1C9E"/>
<path d="M11.2663 30.0393H16.6003L18.2416 22.5716H9.625L11.2663 30.0393Z" fill="#8B1C9E"/>
<path d="M24.3831 7.21507L27.0502 11.8345L21.4036 16.9897L17.0953 9.52756L24.3831 7.21507Z" fill="#8B1C9E"/>
<path d="M0.820628 21.1653L3.48767 25.7847L10.7755 23.4722L6.46723 16.01L0.820628 21.1653Z" fill="#8B1C9E"/>
<path d="M27.0544 21.1658L24.3873 25.7852L17.0995 23.4727L21.4078 16.0105L27.0544 21.1658Z" fill="#8B1C9E"/>
<path d="M3.48797 7.21458L0.820925 11.834L6.46753 16.9893L10.7758 9.52707L3.48797 7.21458Z" fill="#8B1C9E"/>
</g>
<path d="M189.678 21.2211C189.678 19.8911 189.975 18.7032 190.569 17.6573C191.176 16.5985 191.996 15.7785 193.029 15.1975C194.075 14.6035 195.243 14.3065 196.534 14.3065C198.045 14.3065 199.369 14.6939 200.505 15.4686C201.641 16.2434 202.435 17.3151 202.887 18.6838H199.769C199.459 18.0382 199.02 17.554 198.452 17.2312C197.897 16.9083 197.251 16.7469 196.515 16.7469C195.727 16.7469 195.024 16.9342 194.404 17.3086C193.797 17.6702 193.319 18.1867 192.971 18.8581C192.635 19.5295 192.467 20.3172 192.467 21.2211C192.467 22.112 192.635 22.8996 192.971 23.584C193.319 24.2554 193.797 24.7784 194.404 25.1528C195.024 25.5144 195.727 25.6952 196.515 25.6952C197.251 25.6952 197.897 25.5338 198.452 25.2109C199.02 24.8752 199.459 24.3846 199.769 23.7389H202.887C202.435 25.1206 201.641 26.1987 200.505 26.9735C199.381 27.7353 198.058 28.1162 196.534 28.1162C195.243 28.1162 194.075 27.8257 193.029 27.2446C191.996 26.6507 191.176 25.8307 190.569 24.7848C189.975 23.7389 189.678 22.551 189.678 21.2211ZM204.848 22.5962C204.848 21.5116 205.061 20.5496 205.487 19.7103C205.926 18.871 206.514 18.2254 207.25 17.7735C207.999 17.3215 208.831 17.0956 209.748 17.0956C210.549 17.0956 211.246 17.257 211.84 17.5798C212.447 17.9026 212.931 18.3093 213.293 18.8V17.2699H216.024V28H213.293V26.4312C212.944 26.9347 212.46 27.3544 211.84 27.6901C211.233 28.0129 210.529 28.1743 209.729 28.1743C208.825 28.1743 207.999 27.9419 207.25 27.4771C206.514 27.0122 205.926 26.3601 205.487 25.5208C205.061 24.6686 204.848 23.6938 204.848 22.5962ZM213.293 22.6349C213.293 21.9764 213.164 21.4147 212.905 20.9499C212.647 20.4721 212.298 20.1106 211.859 19.8653C211.42 19.607 210.949 19.4779 210.446 19.4779C209.942 19.4779 209.477 19.6006 209.051 19.8459C208.625 20.0912 208.276 20.4528 208.005 20.9305C207.747 21.3954 207.618 21.9506 207.618 22.5962C207.618 23.2418 207.747 23.81 208.005 24.3006C208.276 24.7784 208.625 25.1464 209.051 25.4046C209.49 25.6629 209.955 25.792 210.446 25.792C210.949 25.792 211.42 25.6693 211.859 25.424C212.298 25.1658 212.647 24.8042 212.905 24.3394C213.164 23.8616 213.293 23.2935 213.293 22.6349ZM221.726 18.9356C222.074 18.3674 222.526 17.922 223.081 17.5992C223.65 17.2764 224.295 17.1149 225.018 17.1149V19.9621H224.302C223.449 19.9621 222.804 20.1622 222.365 20.5625C221.939 20.9628 221.726 21.6601 221.726 22.6543V28H219.014V17.2699H221.726V18.9356ZM237.161 22.4025C237.161 22.7899 237.136 23.1385 237.084 23.4484H229.24C229.304 24.2232 229.576 24.83 230.053 25.2691C230.531 25.7081 231.119 25.9276 231.816 25.9276C232.823 25.9276 233.54 25.495 233.966 24.6299H236.89C236.58 25.6629 235.986 26.5151 235.108 27.1865C234.23 27.8451 233.152 28.1743 231.874 28.1743C230.841 28.1743 229.911 27.9484 229.085 27.4964C228.271 27.0316 227.632 26.3795 227.167 25.5402C226.715 24.7009 226.489 23.7325 226.489 22.6349C226.489 21.5245 226.715 20.5496 227.167 19.7103C227.619 18.871 228.252 18.2254 229.065 17.7735C229.879 17.3215 230.815 17.0956 231.874 17.0956C232.894 17.0956 233.804 17.3151 234.605 17.7541C235.418 18.1931 236.045 18.8194 236.484 19.6328C236.936 20.4334 237.161 21.3566 237.161 22.4025ZM234.353 21.6278C234.34 20.9305 234.088 20.3753 233.598 19.9621C233.107 19.536 232.507 19.3229 231.796 19.3229C231.125 19.3229 230.557 19.5295 230.092 19.9427C229.64 20.343 229.362 20.9047 229.259 21.6278H234.353ZM249.458 22.4025C249.458 22.7899 249.432 23.1385 249.38 23.4484H241.536C241.6 24.2232 241.872 24.83 242.349 25.2691C242.827 25.7081 243.415 25.9276 244.112 25.9276C245.119 25.9276 245.836 25.495 246.262 24.6299H249.186C248.876 25.6629 248.283 26.5151 247.404 27.1865C246.526 27.8451 245.448 28.1743 244.17 28.1743C243.137 28.1743 242.207 27.9484 241.381 27.4964C240.567 27.0316 239.928 26.3795 239.463 25.5402C239.012 24.7009 238.786 23.7325 238.786 22.6349C238.786 21.5245 239.012 20.5496 239.463 19.7103C239.915 18.871 240.548 18.2254 241.362 17.7735C242.175 17.3215 243.111 17.0956 244.17 17.0956C245.19 17.0956 246.1 17.3151 246.901 17.7541C247.714 18.1931 248.341 18.8194 248.78 19.6328C249.232 20.4334 249.458 21.3566 249.458 22.4025ZM246.649 21.6278C246.636 20.9305 246.384 20.3753 245.894 19.9621C245.403 19.536 244.803 19.3229 244.092 19.3229C243.421 19.3229 242.853 19.5295 242.388 19.9427C241.936 20.343 241.659 20.9047 241.555 21.6278H246.649ZM254.49 18.9356C254.839 18.3674 255.291 17.922 255.846 17.5992C256.414 17.2764 257.06 17.1149 257.783 17.1149V19.9621H257.066C256.214 19.9621 255.569 20.1622 255.13 20.5625C254.703 20.9628 254.49 21.6601 254.49 22.6543V28H251.779V17.2699H254.49V18.9356Z" fill="black"/>
</svg>
