<svg width="32" height="32" viewBox="0 0 32 32" fill="none" xmlns="http://www.w3.org/2000/svg">
<g clip-path="url(#clip0_657_8686)">
<rect width="48.8533" height="38.1867" fill="#F7F1E5"/>
<mask id="mask0_657_8686" style="mask-type:alpha" maskUnits="userSpaceOnUse" x="5" y="5" width="22" height="22">
<rect x="5.07422" y="5" width="21.924" height="21.924" fill="#956A1D"/>
</mask>
<g mask="url(#mask0_657_8686)">
<path d="M14.1396 17.1283L14.851 14.7707L12.9783 13.3968H15.3185L16.0351 11.0147L16.7518 13.3968H19.0919L17.214 14.7707L17.9254 17.1283L16.0351 15.6648L14.1396 17.1283ZM11.4676 24.6048V18.5846C10.8891 18.0153 10.4399 17.3489 10.1202 16.5854C9.80049 15.8217 9.64062 15.0048 9.64062 14.1347C9.64062 12.3522 10.2607 10.8408 11.501 9.60057C12.7412 8.36035 14.2526 7.74023 16.0351 7.74023C17.8177 7.74023 19.329 8.36035 20.5693 9.60057C21.8095 10.8408 22.4296 12.3522 22.4296 14.1347C22.4296 15.0048 22.2697 15.8217 21.95 16.5854C21.6303 17.3489 21.1812 18.0153 20.6026 18.5846V24.6048L16.0351 23.2345L11.4676 24.6048ZM16.0351 19.6157C17.5576 19.6157 18.8517 19.0828 19.9175 18.0171C20.9832 16.9513 21.5161 15.6572 21.5161 14.1347C21.5161 12.6122 20.9832 11.3181 19.9175 10.2524C18.8517 9.18661 17.5576 8.65373 16.0351 8.65373C14.5126 8.65373 13.2185 9.18661 12.1527 10.2524C11.087 11.3181 10.5541 12.6122 10.5541 14.1347C10.5541 15.6572 11.087 16.9513 12.1527 18.0171C13.2185 19.0828 14.5126 19.6157 16.0351 19.6157ZM12.3811 23.3101L16.0351 22.2859L19.6891 23.3101V19.354C19.1797 19.7287 18.6137 20.0183 17.9911 20.2227C17.3687 20.4271 16.7167 20.5292 16.0351 20.5292C15.3535 20.5292 14.7015 20.4271 14.0791 20.2227C13.4565 20.0183 12.8905 19.7287 12.3811 19.354V23.3101Z" fill="#956A1D"/>
</g>
</g>
<rect x="0.5" y="0.5" width="31" height="31" rx="15.5" stroke="white"/>
<defs>
<clipPath id="clip0_657_8686">
<rect width="32" height="32" rx="16" fill="white"/>
</clipPath>
</defs>
</svg>
